<svg xmlns="http://www.w3.org/2000/svg" width="1200" height="630" viewBox="0 0 1200 630" fill="none">
  <defs>
    <radialGradient id="bloom" cx="50%" cy="0%" r="75%">
      <stop offset="0%" stop-color="#7c5cff" stop-opacity="0.35" />
      <stop offset="55%" stop-color="#7c5cff" stop-opacity="0.05" />
      <stop offset="100%" stop-color="#7c5cff" stop-opacity="0" />
    </radialGradient>
    <radialGradient id="spark" cx="85%" cy="110%" r="60%">
      <stop offset="0%" stop-color="#4cc2ff" stop-opacity="0.16" />
      <stop offset="100%" stop-color="#4cc2ff" stop-opacity="0" />
    </radialGradient>
    <linearGradient id="ink" x1="0" y1="0" x2="0" y2="1">
      <stop offset="0%" stop-color="#ffffff" />
      <stop offset="100%" stop-color="#b9b9c6" />
    </linearGradient>
    <linearGradient id="violet" x1="0" y1="0" x2="0" y2="1">
      <stop offset="0%" stop-color="#9a82ff" />
      <stop offset="100%" stop-color="#5a3ff0" />
    </linearGradient>
  </defs>

  <rect width="1200" height="630" fill="#08080a" />
  <rect width="1200" height="630" fill="url(#bloom)" />
  <rect width="1200" height="630" fill="url(#spark)" />
  <rect x="0.5" y="0.5" width="1199" height="629" rx="0" stroke="#ffffff" stroke-opacity="0.06" />

  <!-- brand mark -->
  <g transform="translate(96, 96)">
    <path transform="scale(1.05)" fill="url(#violet)" d="M25.946 44.938c-.664.845-2.021.375-2.021-.698V33.937a2.26 2.26 0 0 0-2.262-2.262H10.287c-.92 0-1.456-1.04-.92-1.788l7.48-10.471c1.07-1.497 0-3.578-1.842-3.578H1.237c-.92 0-1.456-1.04-.92-1.788L10.013.474c.214-.297.556-.474.92-.474h28.894c.92 0 1.456 1.04.92 1.788l-7.48 10.471c-1.07 1.498 0 3.579 1.842 3.579h11.377c.943 0 1.473 1.088.89 1.83L25.947 44.94z" />
    <text x="66" y="38" font-family="'Space Grotesk', 'Segoe UI', sans-serif" font-size="34" font-weight="600" fill="#ececf1" letter-spacing="-0.5">Fluxion</text>
  </g>

  <!-- headline -->
  <text x="96" y="330" font-family="'Space Grotesk', 'Segoe UI', sans-serif" font-size="76" font-weight="600" fill="url(#ink)" letter-spacing="-2">Compose intelligence</text>
  <text x="96" y="416" font-family="'Space Grotesk', 'Segoe UI', sans-serif" font-size="76" font-weight="600" fill="url(#ink)" letter-spacing="-2">on an infinite canvas.</text>

  <!-- subtitle -->
  <text x="98" y="486" font-family="'Inter', 'Segoe UI', sans-serif" font-size="27" fill="#8d8d99">Visual AI workflow studio — triggers, AI nodes, logic, and real-time execution.</text>

  <!-- category dots -->
  <g transform="translate(98, 540)">
    <circle cx="8" cy="8" r="8" fill="#8b7bff" />
    <circle cx="40" cy="8" r="8" fill="#4c9bff" />
    <circle cx="72" cy="8" r="8" fill="#c26bff" />
    <circle cx="104" cy="8" r="8" fill="#e0a33e" />
    <circle cx="136" cy="8" r="8" fill="#34d0a8" />
  </g>
</svg>
